<?xml version="1.0" standalone="no"?>
<!DOCTYPE svg PUBLIC "-//W3C//DTD SVG 20010904//EN"
 "http://www.w3.org/TR/2001/REC-SVG-20010904/DTD/svg10.dtd">
<svg version="1.0" xmlns="http://www.w3.org/2000/svg"
 width="512.000000pt" height="512.000000pt" viewBox="0 0 512.000000 512.000000"
 preserveAspectRatio="xMidYMid meet">

<g transform="translate(0.000000,512.000000) scale(0.100000,-0.100000)"
fill="#000000" stroke="none">
<path d="M796 5104 c-36 -11 -65 -31 -107 -73 -98 -99 -89 154 -89 -2471 0
-2625 -9 -2372 89 -2471 98 -97 -77 -89 1871 -89 1948 0 1773 -8 1871 89 95
95 89 21 89 1108 l0 943 -29 32 c-24 27 -36 33 -71 33 -35 0 -47 -6 -71 -33
l-29 -32 0 -941 0 -941 -29 -29 -29 -29 -1702 0 -1702 0 -29 29 -29 29 0 2302
0 2302 29 29 29 29 1702 0 1702 0 29 -29 29 -29 0 -941 0 -941 29 -32 c24 -27
36 -33 71 -33 35 0 47 6 71 33 l29 32 0 943 c0 1085 6 1011 -88 1107 -96 98
79 90 -1876 89 -1494 0 -1717 -2 -1760 -15z"/>
<path d="M1150 4649 c-14 -5 -33 -20 -42 -32 -16 -20 -18 -63 -18 -500 l0
-479 29 -29 29 -29 1412 0 1412 0 29 29 29 29 0 477 c0 524 1 512 -62 534 -41
15 -2782 14 -2818 0z m2680 -529 l0 -340 -1270 0 -1270 0 0 340 0 340 1270 0
1270 0 0 -340z"/>
<path d="M1150 3209 c-14 -5 -33 -20 -42 -32 -16 -20 -18 -68 -18 -603 l0
-581 24 -26 c13 -14 39 -28 57 -32 19 -3 305 -5 637 -3 l604 3 29 33 29 32 0
575 0 575 -29 32 -29 33 -619 2 c-390 1 -627 -2 -643 -8z m1120 -634 l0 -445
-490 0 -490 0 0 445 0 445 490 0 490 0 0 -445z"/>
<path d="M1729 2865 c-35 -19 -42 -36 -48 -120 l-6 -70 -76 -5 c-84 -6 -103
-16 -119 -66 -10 -28 -9 -40 7 -72 21 -43 60 -61 141 -61 l52 -1 0 -67 c0 -72
13 -100 57 -122 39 -20 73 -13 109 23 32 32 34 38 34 99 l0 64 71 5 c60 5 75
10 100 34 41 39 41 99 1 137 -25 24 -36 27 -100 27 l-72 0 0 71 c0 67 -2 73
-34 105 -37 37 -73 43 -117 19z"/>
<path d="M2714 3210 c-12 -4 -31 -21 -43 -36 -21 -27 -21 -29 -21 -600 l0
-574 29 -32 29 -33 604 -3 c332 -2 618 0 637 3 18 4 44 18 57 32 l24 26 0 579
c0 638 2 615 -62 637 -38 13 -1222 14 -1254 1z m1116 -635 l0 -445 -490 0
-490 0 0 445 0 445 490 0 490 0 0 -445z"/>
<path d="M3067 2642 c-39 -41 -38 -98 4 -138 l30 -29 217 -3 c256 -4 287 2
315 60 16 32 17 43 7 73 -21 64 -27 65 -300 65 l-246 0 -27 -28z"/>
<path d="M4367 2649 c-22 -13 -47 -61 -47 -93 0 -14 13 -40 29 -58 24 -27 36
-33 71 -33 35 0 47 6 71 33 16 18 29 44 29 58 0 33 -25 81 -49 94 -25 13 -81
12 -104 -1z"/>
<path d="M1150 1739 c-14 -5 -33 -20 -42 -32 -16 -20 -18 -68 -18 -603 l0
-581 24 -26 c13 -14 39 -28 57 -32 19 -3 305 -5 637 -3 l604 3 29 33 29 32 0
575 0 575 -29 32 -29 33 -619 2 c-390 1 -627 -2 -643 -8z m1120 -634 l0 -445
-490 0 -490 0 0 445 0 445 490 0 490 0 0 -445z"/>
<path d="M1569 1322 c-28 -25 -34 -37 -34 -71 0 -35 7 -47 48 -89 26 -26 47
-52 47 -57 0 -5 -21 -31 -47 -57 -41 -42 -48 -54 -48 -89 0 -34 6 -46 34 -71
49 -44 97 -36 162 28 l48 48 56 -53 c54 -51 58 -53 98 -48 55 8 87 43 87 98 0
35 -7 48 -49 92 l-49 52 49 52 c42 44 49 58 49 92 0 55 -32 90 -87 98 -40 5
-44 3 -98 -48 l-56 -53 -48 48 c-65 64 -113 72 -162 28z"/>
<path d="M2714 1740 c-12 -4 -31 -21 -43 -36 -21 -27 -21 -29 -21 -600 l0
-574 29 -32 29 -33 604 -3 c332 -2 618 0 637 3 18 4 44 18 57 32 l24 26 0 579
c0 638 2 615 -62 637 -38 13 -1222 14 -1254 1z m1116 -635 l0 -445 -490 0
-490 0 0 445 0 445 490 0 490 0 0 -445z"/>
<path d="M3094 1360 c-56 -22 -72 -108 -30 -157 l24 -28 245 -3 246 -3 33 29
c27 25 33 37 33 72 0 35 -6 47 -33 71 l-32 29 -233 -1 c-127 0 -242 -4 -253
-9z"/>
<path d="M3069 1031 c-52 -53 -33 -135 38 -162 13 -5 119 -9 234 -9 242 0 270
6 295 65 12 29 13 44 4 70 -21 62 -32 65 -300 65 l-242 0 -29 -29z"/>
</g>
</svg>
